<?xml version="1.0" encoding="UTF-8" standalone="no"?>
<svg
   xmlns:dc="http://purl.org/dc/elements/1.1/"
   xmlns:cc="http://creativecommons.org/ns#"
   xmlns:rdf="http://www.w3.org/1999/02/22-rdf-syntax-ns#"
   xmlns:svg="http://www.w3.org/2000/svg"
   xmlns="http://www.w3.org/2000/svg"
   xmlns:sodipodi="http://sodipodi.sourceforge.net/DTD/sodipodi-0.dtd"
   xmlns:inkscape="http://www.inkscape.org/namespaces/inkscape"
   width="10mm"
   height="10mm"
   viewBox="0 0 10 10"
   version="1.1"
   id="svg8"
   sodipodi:docname="icon.svg"
   inkscape:version="1.0.1 (3bc2e813f5, 2020-09-07)">
  <sodipodi:namedview
     pagecolor="#ffffff"
     bordercolor="#666666"
     borderopacity="1"
     objecttolerance="10"
     gridtolerance="10"
     guidetolerance="10"
     inkscape:pageopacity="0"
     inkscape:pageshadow="2"
     inkscape:window-width="1920"
     inkscape:window-height="1016"
     id="namedview9"
     showgrid="false"
     inkscape:zoom="39.683763"
     inkscape:cx="16.127682"
     inkscape:cy="21.267221"
     inkscape:window-x="0"
     inkscape:window-y="0"
     inkscape:window-maximized="1"
     inkscape:current-layer="text833"
     inkscape:document-rotation="0" />
  <defs
     id="defs2">
    <rect
       x="21.624372"
       y="59.929897"
       width="105.26046"
       height="73.991791"
       id="rect835" />
  </defs>
  <metadata
     id="metadata5">
    <rdf:RDF>
      <cc:Work
         rdf:about="">
        <dc:format>image/svg+xml</dc:format>
        <dc:type
           rdf:resource="http://purl.org/dc/dcmitype/StillImage" />
        <dc:title />
      </cc:Work>
    </rdf:RDF>
  </metadata>
  <g
     id="layer1"
     transform="translate(-22.503497,-60.787514)">
    <g
       aria-label="☺"
       transform="translate(0.36205542,0.35947161)"
       id="text833"
       style="font-style:normal;font-weight:normal;font-size:10.5833px;line-height:1.25;font-family:sans-serif;letter-spacing:0px;word-spacing:0px;white-space:pre;shape-inside:url(#rect835);fill:#000000;fill-opacity:1;stroke:none">
      <path
         d="m 24.942616,64.340383 c 0,-0.20326 0.0689,-0.373791 0.206705,-0.511595 0.141249,-0.141248 0.313503,-0.211872 0.516763,-0.211872 0.199815,0 0.370346,0.07062 0.511595,0.211872 0.141249,0.137804 0.211873,0.308335 0.211873,0.511595 0,0.20326 -0.07062,0.375515 -0.211873,0.516763 -0.141249,0.141249 -0.31178,0.211873 -0.511595,0.211873 -0.20326,0 -0.375514,-0.07062 -0.516763,-0.211873 -0.137803,-0.144693 -0.206705,-0.316947 -0.206705,-0.516763 z m 2.986889,0 c 0,-0.20326 0.07062,-0.373791 0.211872,-0.511595 0.141249,-0.141248 0.31178,-0.211872 0.511595,-0.211872 0.199815,0 0.370347,0.07062 0.511595,0.211872 0.144694,0.137804 0.217041,0.308335 0.217041,0.511595 0,0.199816 -0.07235,0.37207 -0.217041,0.516763 -0.141248,0.141249 -0.31178,0.211873 -0.511595,0.211873 -0.20326,0 -0.375514,-0.07062 -0.516762,-0.211873 -0.137803,-0.144693 -0.206705,-0.316947 -0.206705,-0.516763 z m -5.426008,1.097995 c 0,-1.285017 0.453028,-2.380554 1.359085,-3.286611 0.906057,-0.909502 1.999872,-1.364253 3.281443,-1.364253 1.285017,0 2.378831,0.454751 3.281443,1.364253 0.902613,0.906057 1.353919,2.001594 1.353919,3.286611 0,1.281571 -0.451306,2.373663 -1.353919,3.276275 -0.902612,0.902612 -1.996426,1.353918 -3.281443,1.353918 -1.281571,0 -2.375386,-0.451306 -3.281443,-1.353918 -0.906057,-0.902612 -1.359085,-1.994704 -1.359085,-3.276275 z m 0.697629,0 c 0,1.088647 0.384127,2.017097 1.152381,2.78535 0.771699,0.764809 1.701871,1.147214 2.790518,1.147214 1.092092,0 2.020542,-0.382405 2.785351,-1.147214 0.768254,-0.768253 1.152381,-1.696703 1.152381,-2.78535 0,-1.092092 -0.384127,-2.023987 -1.152381,-2.795686 -0.764809,-0.771699 -1.693259,-1.157549 -2.785351,-1.157549 -1.088647,0 -2.018819,0.38585 -2.790518,1.157549 -0.768254,0.771699 -1.152381,1.703594 -1.152381,2.795686 z m 1.21956,1.452103 0.594277,-0.366902 c 0.09646,0.148139 0.213596,0.289387 0.351399,0.423746 0.489202,0.489202 1.081756,0.733803 1.777663,0.733803 0.695907,0 1.288462,-0.244601 1.777664,-0.733803 0.134358,-0.134359 0.251491,-0.27733 0.351399,-0.428913 l 0.594277,0.372069 c -0.127468,0.192925 -0.277329,0.377237 -0.449584,0.552936 -0.627005,0.62356 -1.384924,0.93534 -2.273756,0.93534 -0.888831,0 -1.64675,-0.31178 -2.273755,-0.93534 -0.175699,-0.175699 -0.325561,-0.360011 -0.449584,-0.552936 z"
         style="font-style:normal;font-variant:normal;font-weight:normal;font-stretch:normal;font-family:'Open Sans';-inkscape-font-specification:'Open Sans'"
         id="path857"
         sodipodi:nodetypes="ssscssscsscscssscsscscsssssscssscscscccsscccscc" />
    </g>
  </g>
</svg>
